<svg width="558" height="470" viewBox="0 0 558 470" fill="none" xmlns="http://www.w3.org/2000/svg">
<path fill-rule="evenodd" clip-rule="evenodd" d="M103.899 134.2L104.399 137.3L107.399 138.2L104.599 139.6L104.699 142.8L102.499 140.5L99.4993 141.6L100.999 138.8L98.9993 136.3L102.199 136.8L103.899 134.2Z" fill="#FEFEFE"/>
<path fill-rule="evenodd" clip-rule="evenodd" d="M127.9 231.4L128.4 235L131.9 235.9L128.7 237.6L128.9 241.2L126.4 238.6L123 240L124.6 236.7L122.3 233.9L125.9 234.4L127.9 231.4Z" fill="#FEFEFE"/>
<path fill-rule="evenodd" clip-rule="evenodd" d="M401.498 25.2L402.898 28.6L406.498 28.8L403.698 31.1L404.598 34.6L401.498 32.6L398.498 34.6L399.398 31.1L396.598 28.8L400.198 28.6L401.498 25.2Z" fill="#FEFEFE"/>
<path fill-rule="evenodd" clip-rule="evenodd" d="M180.099 281.1L181.199 282.4L182.899 281.9L181.999 283.4L182.999 284.9L181.199 284.5L180.199 285.9L180.099 284.1L178.399 283.5L179.999 282.8L180.099 281.1Z" fill="#FEFEFE"/>
<path fill-rule="evenodd" clip-rule="evenodd" d="M53.2997 267.1L53.5997 267.9L54.5997 268L53.8997 268.6L54.0997 269.5L53.2997 269L52.4998 269.5L52.6998 268.6L51.9998 268L52.9997 267.9L53.2997 267.1Z" fill="#FEFEFE"/>
<path fill-rule="evenodd" clip-rule="evenodd" d="M427.997 242.8L428.597 244.4L430.397 244.5L428.997 245.6L429.497 247.3L427.997 246.3L426.598 247.3L426.998 245.6L425.698 244.5L427.397 244.4L427.997 242.8Z" fill="#FEFEFE"/>
<path fill-rule="evenodd" clip-rule="evenodd" d="M467.097 83L467.697 84.6L469.397 84.7L468.097 85.8L468.497 87.4L467.097 86.5L465.597 87.4L465.997 85.8L464.697 84.7L466.397 84.6L467.097 83Z" fill="#FEFEFE"/>
<path fill-rule="evenodd" clip-rule="evenodd" d="M366.598 302.7L367.198 304.3L368.898 304.4L367.598 305.5L368.098 307.1L366.598 306.2L365.098 307.1L365.598 305.5L364.198 304.4L365.998 304.3L366.598 302.7Z" fill="#FEFEFE"/>
<path fill-rule="evenodd" clip-rule="evenodd" d="M71.8997 0L72.4997 1.6L74.1997 1.7L72.8997 2.8L73.3997 4.5L71.8997 3.5L70.4997 4.5L70.8997 2.8L69.4998 1.7L71.2997 1.6L71.8997 0Z" fill="#FEFEFE"/>
<path fill-rule="evenodd" clip-rule="evenodd" d="M178.399 6.7L179.599 10.1L183.299 10.3L180.399 12.6L181.399 16.1L178.399 14.1L175.299 16.1L176.199 12.6L173.399 10.3L176.999 10.1L178.399 6.7Z" fill="#FEFEFE"/>
<path fill-rule="evenodd" clip-rule="evenodd" d="M434.398 134.2L437.398 136.1L440.398 134.2L439.498 137.6L442.298 139.9L438.698 140.1L437.398 143.4L436.098 140.1L432.598 139.9L435.398 137.7L434.398 134.2Z" fill="#FEFEFE"/>
<path fill-rule="evenodd" clip-rule="evenodd" d="M465.997 285.2L466.697 286.8L468.397 286.9L466.997 288L467.497 289.6L465.997 288.7L464.597 289.6L464.997 288L463.697 286.9L465.397 286.8L465.997 285.2Z" fill="#FEFEFE"/>
<path opacity="0.4" d="M266.45 115.303L0.548353 377.357L502.134 469.601L313.597 123.973L266.45 115.303Z" fill="url(#paint0_linear)"/>
<path opacity="0.8" d="M266.451 115.303L133.5 353L348.998 383L313.597 123.973L266.451 115.303Z" fill="url(#paint1_linear)"/>
<g clip-path="url(#clip0)">
<path d="M285.834 278.88L286.098 278.681L285.834 278.481C284.432 277.42 282.75 276.69 280.888 276.429C275.055 275.611 269.644 279.689 268.824 285.52C268.563 287.382 268.802 289.199 269.437 290.839L269.556 291.148L269.821 290.948L285.834 278.88ZM272.554 294.792L272.303 294.981L272.543 295.183C274.025 296.428 275.861 297.288 277.916 297.576C283.749 298.394 289.161 294.316 289.98 288.485C290.268 286.431 289.947 284.429 289.157 282.662L289.029 282.376L288.778 282.565L272.554 294.792ZM264.154 284.866C265.335 276.462 273.136 270.583 281.543 271.761C289.951 272.939 295.83 280.736 294.65 289.139C293.469 297.543 285.668 303.422 277.261 302.244C268.853 301.066 262.974 293.27 264.154 284.866Z" fill="#1AEEC2" stroke="#282F39" stroke-width="0.5"/>
<path d="M238.421 247.776L238.174 247.741L238.139 247.989L233.221 282.956C232.802 285.939 234.89 288.706 237.876 289.124L257.126 291.825C258.416 292.006 259.315 293.197 259.134 294.486C258.953 295.774 257.76 296.672 256.47 296.491L237.22 293.791C231.657 293.01 227.768 287.856 228.549 282.301L234.573 239.462C235.154 235.33 238.994 232.44 243.131 233.02L293.775 240.125C297.912 240.705 300.806 244.54 300.225 248.672L297.267 269.704C297.086 270.992 295.893 271.89 294.602 271.709C293.312 271.528 292.413 270.336 292.594 269.048L294.445 255.887L294.48 255.639L294.232 255.605L238.421 247.776ZM275.534 242.661L275.697 242.347L275.347 242.298L242.475 237.687C240.914 237.468 239.465 238.558 239.246 240.118L238.865 242.827L238.83 243.075L239.078 243.11L274.58 248.09L274.937 248.14L274.859 247.788C274.667 246.928 274.622 246.021 274.752 245.098C274.875 244.223 275.146 243.404 275.534 242.661ZM295.423 247.998C295.642 246.438 294.55 244.992 292.989 244.773C291.428 244.554 289.979 245.644 289.76 247.204C289.541 248.763 290.632 250.21 292.194 250.429C293.755 250.648 295.203 249.558 295.423 247.998ZM285.087 246.548C285.307 244.988 284.215 243.542 282.654 243.323C281.093 243.104 279.644 244.194 279.425 245.754C279.205 247.314 280.297 248.76 281.858 248.979C283.42 249.198 284.868 248.108 285.087 246.548Z" fill="#1AEEC2" stroke="#282F39" stroke-width="0.5"/>
</g>
<path opacity="0.4" d="M311.318 123.045L266.259 114.916C261.479 114.053 258.293 109.461 259.156 104.678C260.019 99.8941 264.609 96.705 269.389 97.5674L314.448 105.697C319.228 106.56 322.414 111.152 321.551 115.935C320.688 120.719 316.098 123.908 311.318 123.045Z" fill="#56CCF2"/>
<path d="M314.356 125.174C319.136 126.036 323.685 123.433 325.638 119.175L331.82 120.29C332.299 123.472 334.712 126.147 338.09 126.756C342.296 127.515 346.284 124.744 347.043 120.535L347.975 115.368C348.574 112.052 346.925 108.791 344.113 107.23L344.712 103.913L373.264 109.065C374.602 109.306 375.881 108.418 376.123 107.078C376.365 105.739 375.477 104.459 374.139 104.218L350.749 99.9974L350.772 99.8698C351.37 96.5533 349.721 93.2922 346.91 91.7313L347.474 88.6061C347.715 87.2667 346.827 85.987 345.489 85.7455C344.151 85.504 342.872 86.3928 342.63 87.7322L342.066 90.8574C338.887 91.3374 336.213 93.7527 335.603 97.1331L335.569 97.3244L312.179 93.1043C310.841 92.8628 309.562 93.7516 309.32 95.091C309.078 96.4303 309.966 97.7101 311.304 97.9516L339.857 103.103L339.258 106.42C336.079 106.9 333.405 109.315 332.796 112.695L332.301 115.438L326.501 114.392C326.223 109.731 322.806 105.69 318.026 104.828L266.339 95.5023C261.559 94.6399 256.946 97.232 255.057 101.501L249.257 100.455L249.752 97.7121C250.35 94.3956 248.701 91.1345 245.89 89.5736L246.488 86.257L275.041 91.4086C276.379 91.6501 277.658 90.7613 277.9 89.4219C278.141 88.0826 277.254 86.8028 275.915 86.5613L252.525 82.3412L252.56 82.1499C253.158 78.8333 251.509 75.5722 248.698 74.0113L249.262 70.8861C249.503 69.5467 248.616 68.267 247.277 68.0255C245.939 67.784 244.66 68.6728 244.418 70.0122L243.854 73.1374C240.675 73.6174 238.001 76.0328 237.392 79.4131L237.357 79.6044L213.967 75.3843C212.629 75.1428 211.35 76.0316 211.108 77.371C210.866 78.7103 211.754 79.9901 213.093 80.2316L241.645 85.3831L241.046 88.6997C237.867 89.1797 235.194 91.595 234.584 94.9754L233.652 100.142C232.892 104.351 235.66 108.341 239.866 109.1C243.181 109.698 246.44 108.047 248 105.233L254.182 106.348C254.46 111.008 257.889 114.986 262.657 115.912L314.356 125.174ZM271.336 117.412L305.752 123.621L271.336 117.412ZM242.235 80.287C242.511 78.7563 243.941 77.763 245.471 78.0389C247 78.3149 247.992 79.7452 247.716 81.2759L247.682 81.4673L242.201 80.4784L242.235 80.287ZM240.741 104.252C239.211 103.976 238.219 102.546 238.495 101.015L239.427 95.8493C239.704 94.3186 241.133 93.3253 242.663 93.6012C244.192 93.8772 245.185 95.3075 244.908 96.8382L243.976 102.004C243.712 103.471 242.271 104.528 240.741 104.252ZM315.23 120.327L263.543 111.001C260.611 110.472 258.627 107.611 259.156 104.677C259.685 101.744 262.545 99.7568 265.476 100.286L317.163 109.611C320.095 110.14 322.08 113.001 321.55 115.935C321.021 118.869 318.162 120.855 315.23 120.327ZM342.2 119.661C341.923 121.191 340.494 122.185 338.964 121.909C337.435 121.633 336.442 120.202 336.719 118.672L337.651 113.506C337.927 111.975 339.357 110.981 340.886 111.257C342.416 111.533 343.408 112.964 343.132 114.494L342.2 119.661ZM340.447 98.007C340.723 96.4763 342.153 95.483 343.682 95.7589C345.212 96.0349 346.204 97.4652 345.928 98.9959L345.894 99.1873L340.413 98.1983L340.447 98.007Z" fill="#1AEEC2"/>
<defs>
<linearGradient id="paint0_linear" x1="259.498" y1="316.5" x2="318.999" y2="20" gradientUnits="userSpaceOnUse">
<stop stop-color="#1AEEC2" stop-opacity="0"/>
<stop offset="1" stop-color="#1AEEC2"/>
</linearGradient>
<linearGradient id="paint1_linear" x1="269.311" y1="264.627" x2="326.999" y2="-47.4999" gradientUnits="userSpaceOnUse">
<stop stop-color="#1AEEC2" stop-opacity="0"/>
<stop offset="1" stop-color="#1AEEC2"/>
</linearGradient>
<clipPath id="clip0">
<rect width="67.231" height="67.2314" fill="white" transform="matrix(0.989548 0.144204 -0.144202 0.989548 235.665 229.971)"/>
</clipPath>
</defs>
</svg>
