<svg width="557" height="470" viewBox="0 0 557 470" fill="none" xmlns="http://www.w3.org/2000/svg">
<path fill-rule="evenodd" clip-rule="evenodd" d="M103.352 134.2L103.852 137.3L106.852 138.2L104.052 139.6L104.152 142.8L101.952 140.5L98.9517 141.6L100.452 138.8L98.4517 136.3L101.652 136.8L103.352 134.2Z" fill="#FEFEFE"/>
<path fill-rule="evenodd" clip-rule="evenodd" d="M127.352 231.4L127.852 235L131.352 235.9L128.152 237.6L128.352 241.2L125.852 238.6L122.452 240L124.052 236.7L121.752 233.9L125.352 234.4L127.352 231.4Z" fill="#FEFEFE"/>
<path fill-rule="evenodd" clip-rule="evenodd" d="M400.952 25.2L402.352 28.6L405.952 28.8L403.152 31.1L404.052 34.6L400.952 32.6L397.952 34.6L398.852 31.1L396.052 28.8L399.652 28.6L400.952 25.2Z" fill="#FEFEFE"/>
<path fill-rule="evenodd" clip-rule="evenodd" d="M179.552 281.1L180.652 282.4L182.352 281.9L181.452 283.4L182.452 284.9L180.652 284.5L179.652 285.9L179.552 284.1L177.852 283.5L179.452 282.8L179.552 281.1Z" fill="#FEFEFE"/>
<path fill-rule="evenodd" clip-rule="evenodd" d="M52.7517 267.1L53.0517 267.9L54.0517 268L53.3517 268.6L53.5517 269.5L52.7517 269L51.9517 269.5L52.1517 268.6L51.4517 268L52.4517 267.9L52.7517 267.1Z" fill="#FEFEFE"/>
<path fill-rule="evenodd" clip-rule="evenodd" d="M427.452 242.8L428.052 244.4L429.852 244.5L428.452 245.6L428.952 247.3L427.452 246.3L426.052 247.3L426.452 245.6L425.152 244.5L426.852 244.4L427.452 242.8Z" fill="#FEFEFE"/>
<path fill-rule="evenodd" clip-rule="evenodd" d="M466.552 83L467.152 84.6L468.852 84.7L467.552 85.8L467.952 87.4L466.552 86.5L465.052 87.4L465.452 85.8L464.152 84.7L465.852 84.6L466.552 83Z" fill="#FEFEFE"/>
<path fill-rule="evenodd" clip-rule="evenodd" d="M366.052 302.7L366.652 304.3L368.352 304.4L367.052 305.5L367.552 307.1L366.052 306.2L364.552 307.1L365.052 305.5L363.652 304.4L365.452 304.3L366.052 302.7Z" fill="#FEFEFE"/>
<path fill-rule="evenodd" clip-rule="evenodd" d="M71.3517 0L71.9517 1.6L73.6517 1.7L72.3517 2.8L72.8517 4.5L71.3517 3.5L69.9517 4.5L70.3517 2.8L68.9517 1.7L70.7517 1.6L71.3517 0Z" fill="#FEFEFE"/>
<path fill-rule="evenodd" clip-rule="evenodd" d="M177.852 6.7L179.052 10.1L182.752 10.3L179.852 12.6L180.852 16.1L177.852 14.1L174.752 16.1L175.652 12.6L172.852 10.3L176.452 10.1L177.852 6.7Z" fill="#FEFEFE"/>
<path fill-rule="evenodd" clip-rule="evenodd" d="M433.852 134.2L436.852 136.1L439.852 134.2L438.952 137.6L441.752 139.9L438.152 140.1L436.852 143.4L435.552 140.1L432.052 139.9L434.852 137.7L433.852 134.2Z" fill="#FEFEFE"/>
<path fill-rule="evenodd" clip-rule="evenodd" d="M465.452 285.2L466.152 286.8L467.852 286.9L466.452 288L466.952 289.6L465.452 288.7L464.052 289.6L464.452 288L463.152 286.9L464.852 286.8L465.452 285.2Z" fill="#FEFEFE"/>
<path opacity="0.4" d="M265.903 115.303L-6.33527e-05 377.357L501.588 469.601L313.05 123.973L265.903 115.303Z" fill="url(#paint0_linear)"/>
<path opacity="0.8" d="M265.904 115.303L132.952 353L348.452 383L313.05 123.973L265.904 115.303Z" fill="url(#paint1_linear)"/>
<path opacity="0.4" d="M310.771 123.045L265.712 114.916C260.932 114.053 257.746 109.461 258.609 104.678C259.472 99.8941 264.062 96.705 268.842 97.5674L313.901 105.697C318.681 106.56 321.867 111.152 321.004 115.935C320.141 120.719 315.551 123.908 310.771 123.045Z" fill="#56CCF2"/>
<path d="M313.809 125.174C318.589 126.036 323.139 123.433 325.092 119.175L331.274 120.29C331.753 123.472 334.166 126.147 337.544 126.756C341.75 127.515 345.738 124.744 346.497 120.535L347.429 115.368C348.028 112.052 346.379 108.791 343.567 107.23L344.166 103.913L372.718 109.065C374.056 109.306 375.336 108.418 375.577 107.078C375.819 105.739 374.931 104.459 373.593 104.218L350.203 99.9974L350.226 99.8699C350.824 96.5533 349.175 93.2922 346.364 91.7313L346.928 88.6061C347.169 87.2667 346.281 85.987 344.943 85.7455C343.605 85.504 342.325 86.3928 342.084 87.7322L341.52 90.8574C338.34 91.3374 335.667 93.7527 335.057 97.1331L335.023 97.3244L311.633 93.1043C310.294 92.8628 309.015 93.7516 308.774 95.091C308.532 96.4303 309.42 97.7101 310.758 97.9516L339.311 103.103L338.712 106.42C335.533 106.9 332.859 109.315 332.249 112.695L331.755 115.438L325.955 114.392C325.677 109.731 322.26 105.69 317.48 104.828L265.793 95.5023C261.013 94.6399 256.399 97.232 254.51 101.501L248.711 100.455L249.205 97.7122C249.804 94.3956 248.155 91.1345 245.343 89.5736L245.942 86.257L274.494 91.4086C275.833 91.6501 277.112 90.7613 277.353 89.4219C277.595 88.0826 276.707 86.8028 275.369 86.5613L251.979 82.3412L252.013 82.1499C252.612 78.8333 250.963 75.5722 248.151 74.0113L248.715 70.8861C248.957 69.5467 248.069 68.267 246.731 68.0255C245.392 67.784 244.113 68.6728 243.871 70.0122L243.308 73.1374C240.128 73.6174 237.455 76.0328 236.845 79.4131L236.81 79.6044L213.42 75.3843C212.082 75.1428 210.803 76.0316 210.561 77.371C210.32 78.7103 211.207 79.9901 212.546 80.2316L241.098 85.3831L240.5 88.6997C237.32 89.1797 234.647 91.595 234.037 94.9754L233.105 100.142C232.345 104.351 235.113 108.341 239.32 109.1C242.634 109.698 245.893 108.047 247.454 105.233L253.636 106.348C253.914 111.008 257.342 114.986 262.11 115.912L313.809 125.174ZM270.79 117.412L305.205 123.621L270.79 117.412ZM241.689 80.287C241.965 78.7563 243.394 77.763 244.924 78.0389C246.453 78.3149 247.446 79.7452 247.17 81.2759L247.135 81.4673L241.654 80.4784L241.689 80.287ZM240.194 104.252C238.665 103.976 237.672 102.546 237.949 101.015L238.881 95.8493C239.157 94.3186 240.586 93.3253 242.116 93.6012C243.646 93.8772 244.638 95.3075 244.362 96.8382L243.43 102.004C243.165 103.471 241.724 104.528 240.194 104.252ZM314.684 120.327L262.996 111.001C260.065 110.472 258.08 107.611 258.61 104.677C259.139 101.744 261.998 99.7568 264.93 100.286L316.617 109.611C319.549 110.14 321.533 113.001 321.004 115.935C320.475 118.869 317.616 120.855 314.684 120.327ZM341.654 119.661C341.377 121.191 339.948 122.185 338.418 121.909C336.889 121.633 335.896 120.202 336.173 118.672L337.105 113.506C337.381 111.975 338.81 110.981 340.34 111.257C341.87 111.533 342.862 112.964 342.586 114.494L341.654 119.661ZM339.901 98.007C340.177 96.4763 341.607 95.483 343.136 95.7589C344.666 96.0349 345.658 97.4652 345.382 98.9959L345.347 99.1873L339.866 98.1983L339.901 98.007Z" fill="#1AEEC2"/>
<g clip-path="url(#clip0)">
<path d="M292.367 272.639L286.904 271.917L287.77 265.362C288.866 257.068 285.325 248.986 278.664 244.148C286.353 241.207 291.873 234.323 292.969 226.029L293.835 219.474L299.298 220.196C301.105 220.435 302.77 219.158 303.009 217.351C303.248 215.544 301.972 213.879 300.165 213.64L256.462 207.864C254.655 207.625 252.99 208.901 252.751 210.708C252.512 212.515 253.788 214.18 255.595 214.419L261.058 215.141L260.192 221.697C259.095 229.991 262.637 238.072 269.298 242.91C261.609 245.852 256.089 252.736 254.993 261.029L254.126 267.585L248.663 266.863C246.856 266.624 245.191 267.9 244.953 269.707C244.714 271.514 245.99 273.179 247.797 273.418L291.5 279.195C293.307 279.434 294.972 278.157 295.211 276.35C295.45 274.543 294.174 272.878 292.367 272.639ZM255.884 212.234C255.282 212.155 254.856 211.6 254.936 210.997C255.016 210.394 255.571 209.969 256.173 210.049L299.876 215.825C300.478 215.905 300.904 216.459 300.824 217.062C300.744 217.666 300.189 218.09 299.587 218.011L294.124 217.289L261.347 212.956L255.884 212.234ZM262.377 221.986L263.243 215.43L291.65 219.185L290.784 225.74C289.711 233.855 283.953 240.488 276.089 242.696L272.161 242.177C265.141 238.001 261.304 230.1 262.377 221.986ZM257.178 261.318C258.251 253.204 264.009 246.571 271.873 244.362L275.801 244.882C282.821 249.058 286.658 256.959 285.585 265.073L284.718 271.629C284.798 271.025 284.373 270.471 283.77 270.392C283.167 270.312 282.613 270.737 282.533 271.34L280.348 271.051C280.428 270.448 280.003 269.894 279.4 269.814C278.797 269.734 278.243 270.159 278.163 270.762L275.978 270.473C276.058 269.87 275.633 269.316 275.03 269.236C274.427 269.157 273.872 269.581 273.793 270.184L271.608 269.896C271.687 269.292 271.263 268.738 270.659 268.659C270.056 268.579 269.502 269.004 269.422 269.607L267.237 269.318C267.317 268.715 266.892 268.161 266.289 268.081C265.686 268.001 265.132 268.426 265.052 269.029L262.867 268.74C262.947 268.137 262.522 267.583 261.919 267.503C261.316 267.424 260.762 267.848 260.682 268.451L258.497 268.163C258.576 267.559 258.152 267.005 257.549 266.926C256.945 266.846 256.391 267.271 256.312 267.874L257.178 261.318ZM291.789 277.01L248.086 271.233C247.484 271.154 247.058 270.599 247.138 269.996C247.217 269.393 247.773 268.968 248.375 269.048L253.838 269.77L286.615 274.102L292.078 274.825C292.68 274.904 293.106 275.458 293.026 276.062C292.946 276.665 292.391 277.089 291.789 277.01Z" fill="#1AEEC2" stroke="#1AEEC2" stroke-width="0.5"/>
<path d="M259.733 267.214C260.337 267.294 260.891 266.87 260.97 266.266C261.05 265.663 260.626 265.109 260.022 265.029C259.419 264.95 258.865 265.374 258.785 265.977C258.706 266.581 259.13 267.135 259.733 267.214Z" fill="#1AEEC2" stroke="#1AEEC2" stroke-width="0.5"/>
<path d="M264.104 267.792C264.707 267.872 265.261 267.447 265.341 266.844C265.421 266.241 264.996 265.687 264.393 265.607C263.789 265.527 263.236 265.952 263.156 266.555C263.076 267.159 263.501 267.712 264.104 267.792Z" fill="#1AEEC2" stroke="#1AEEC2" stroke-width="0.5"/>
<path d="M268.474 268.37C269.078 268.45 269.631 268.025 269.711 267.422C269.791 266.818 269.366 266.264 268.763 266.185C268.16 266.105 267.606 266.529 267.526 267.133C267.446 267.736 267.871 268.29 268.474 268.37Z" fill="#1AEEC2" stroke="#1AEEC2" stroke-width="0.5"/>
<path d="M272.845 268.947C273.448 269.027 274.002 268.603 274.082 267.999C274.162 267.396 273.737 266.842 273.134 266.762C272.53 266.682 271.976 267.107 271.897 267.71C271.817 268.314 272.241 268.868 272.845 268.947Z" fill="#1AEEC2" stroke="#1AEEC2" stroke-width="0.5"/>
<path d="M277.215 269.525C277.818 269.605 278.372 269.18 278.452 268.577C278.532 267.973 278.107 267.42 277.504 267.34C276.9 267.26 276.346 267.685 276.267 268.288C276.187 268.891 276.611 269.445 277.215 269.525Z" fill="#1AEEC2" stroke="#1AEEC2" stroke-width="0.5"/>
<path d="M281.585 270.103C282.188 270.182 282.742 269.758 282.822 269.155C282.902 268.551 282.477 267.997 281.874 267.918C281.27 267.838 280.717 268.262 280.637 268.866C280.557 269.469 280.982 270.023 281.585 270.103Z" fill="#1AEEC2" stroke="#1AEEC2" stroke-width="0.5"/>
<path d="M262.208 265.318C262.811 265.398 263.365 264.973 263.445 264.37C263.524 263.767 263.1 263.213 262.496 263.133C261.893 263.053 261.339 263.478 261.259 264.081C261.18 264.685 261.604 265.238 262.208 265.318Z" fill="#1AEEC2" stroke="#1AEEC2" stroke-width="0.5"/>
<path d="M266.578 265.896C267.182 265.976 267.735 265.551 267.815 264.948C267.895 264.344 267.47 263.79 266.867 263.711C266.264 263.631 265.71 264.055 265.63 264.659C265.55 265.262 265.975 265.816 266.578 265.896Z" fill="#1AEEC2" stroke="#1AEEC2" stroke-width="0.5"/>
<path d="M273.403 247.9C274.007 247.979 274.561 247.555 274.64 246.951C274.72 246.348 274.296 245.794 273.692 245.714C273.089 245.635 272.535 246.059 272.455 246.663C272.375 247.266 272.8 247.82 273.403 247.9Z" fill="#1AEEC2" stroke="#1AEEC2" stroke-width="0.5"/>
<path d="M268.437 235.015C269.04 235.095 269.594 234.67 269.674 234.067C269.753 233.463 269.329 232.909 268.725 232.83C268.122 232.75 267.568 233.174 267.488 233.778C267.409 234.381 267.833 234.935 268.437 235.015Z" fill="#1AEEC2" stroke="#1AEEC2" stroke-width="0.5"/>
<path d="M272.807 235.592C273.41 235.672 273.964 235.248 274.044 234.644C274.123 234.041 273.699 233.487 273.096 233.407C272.492 233.328 271.938 233.752 271.859 234.355C271.779 234.959 272.203 235.513 272.807 235.592Z" fill="#1AEEC2" stroke="#1AEEC2" stroke-width="0.5"/>
<path d="M277.177 236.17C277.78 236.25 278.334 235.825 278.414 235.222C278.494 234.619 278.069 234.065 277.466 233.985C276.862 233.905 276.308 234.33 276.229 234.933C276.149 235.537 276.573 236.09 277.177 236.17Z" fill="#1AEEC2" stroke="#1AEEC2" stroke-width="0.5"/>
<path d="M281.547 236.748C282.151 236.828 282.705 236.403 282.784 235.8C282.864 235.196 282.44 234.642 281.836 234.563C281.233 234.483 280.679 234.907 280.599 235.511C280.519 236.114 280.944 236.668 281.547 236.748Z" fill="#1AEEC2" stroke="#1AEEC2" stroke-width="0.5"/>
<path d="M279.651 234.274C280.254 234.354 280.808 233.929 280.888 233.326C280.968 232.722 280.543 232.168 279.94 232.089C279.336 232.009 278.783 232.433 278.703 233.037C278.623 233.64 279.048 234.194 279.651 234.274Z" fill="#1AEEC2" stroke="#1AEEC2" stroke-width="0.5"/>
<path d="M282.125 232.377C282.728 232.457 283.282 232.033 283.362 231.429C283.442 230.826 283.017 230.272 282.414 230.192C281.81 230.113 281.257 230.537 281.177 231.14C281.097 231.744 281.522 232.298 282.125 232.377Z" fill="#1AEEC2" stroke="#1AEEC2" stroke-width="0.5"/>
<path d="M270.91 233.119C271.514 233.198 272.067 232.774 272.147 232.17C272.227 231.567 271.802 231.013 271.199 230.933C270.596 230.854 270.042 231.278 269.962 231.882C269.882 232.485 270.307 233.039 270.91 233.119Z" fill="#1AEEC2" stroke="#1AEEC2" stroke-width="0.5"/>
<path d="M275.281 233.696C275.884 233.776 276.438 233.351 276.518 232.748C276.598 232.145 276.173 231.591 275.57 231.511C274.966 231.431 274.412 231.856 274.333 232.459C274.253 233.063 274.677 233.616 275.281 233.696Z" fill="#1AEEC2" stroke="#1AEEC2" stroke-width="0.5"/>
<path d="M269.014 230.645C269.618 230.724 270.171 230.3 270.251 229.696C270.331 229.093 269.906 228.539 269.303 228.459C268.7 228.38 268.146 228.804 268.066 229.408C267.986 230.011 268.411 230.565 269.014 230.645Z" fill="#1AEEC2" stroke="#1AEEC2" stroke-width="0.5"/>
<path d="M270.333 237.489C270.936 237.569 271.49 237.144 271.57 236.541C271.649 235.937 271.225 235.383 270.621 235.304C270.018 235.224 269.464 235.648 269.384 236.252C269.305 236.855 269.729 237.409 270.333 237.489Z" fill="#1AEEC2" stroke="#1AEEC2" stroke-width="0.5"/>
<path d="M272.229 239.963C272.832 240.043 273.386 239.618 273.466 239.015C273.546 238.411 273.121 237.857 272.518 237.778C271.914 237.698 271.361 238.122 271.281 238.726C271.201 239.329 271.626 239.883 272.229 239.963Z" fill="#1AEEC2" stroke="#1AEEC2" stroke-width="0.5"/>
<path d="M276.599 240.54C277.203 240.62 277.756 240.196 277.836 239.592C277.916 238.989 277.491 238.435 276.888 238.355C276.285 238.276 275.731 238.7 275.651 239.303C275.571 239.907 275.996 240.461 276.599 240.54Z" fill="#1AEEC2" stroke="#1AEEC2" stroke-width="0.5"/>
<path d="M274.703 238.066C275.307 238.146 275.86 237.722 275.94 237.118C276.02 236.515 275.595 235.961 274.992 235.881C274.389 235.802 273.835 236.226 273.755 236.829C273.675 237.433 274.1 237.987 274.703 238.066Z" fill="#1AEEC2" stroke="#1AEEC2" stroke-width="0.5"/>
<path d="M279.073 238.644C279.677 238.724 280.231 238.299 280.31 237.696C280.39 237.093 279.966 236.539 279.362 236.459C278.759 236.379 278.205 236.804 278.125 237.407C278.045 238.011 278.47 238.564 279.073 238.644Z" fill="#1AEEC2" stroke="#1AEEC2" stroke-width="0.5"/>
<path d="M272.97 251.177C273.573 251.257 274.127 250.833 274.207 250.229C274.287 249.626 273.862 249.072 273.259 248.992C272.655 248.912 272.101 249.337 272.022 249.94C271.942 250.544 272.366 251.098 272.97 251.177Z" fill="#1AEEC2" stroke="#1AEEC2" stroke-width="0.5"/>
<path d="M272.537 254.455C273.14 254.535 273.694 254.11 273.774 253.507C273.853 252.904 273.429 252.35 272.825 252.27C272.222 252.19 271.668 252.615 271.588 253.218C271.509 253.822 271.933 254.375 272.537 254.455Z" fill="#1AEEC2" stroke="#1AEEC2" stroke-width="0.5"/>
<path d="M272.104 257.733C272.707 257.813 273.261 257.388 273.341 256.785C273.42 256.181 272.996 255.627 272.392 255.548C271.789 255.468 271.235 255.892 271.155 256.496C271.076 257.099 271.5 257.653 272.104 257.733Z" fill="#1AEEC2" stroke="#1AEEC2" stroke-width="0.5"/>
<path d="M271.67 261.011C272.274 261.09 272.828 260.666 272.907 260.062C272.987 259.459 272.563 258.905 271.959 258.825C271.356 258.746 270.802 259.17 270.722 259.774C270.643 260.377 271.067 260.931 271.67 261.011Z" fill="#1AEEC2" stroke="#1AEEC2" stroke-width="0.5"/>
<path d="M271.237 264.288C271.84 264.368 272.394 263.944 272.474 263.34C272.554 262.737 272.129 262.183 271.526 262.103C270.922 262.023 270.368 262.448 270.289 263.051C270.209 263.655 270.633 264.209 271.237 264.288Z" fill="#1AEEC2" stroke="#1AEEC2" stroke-width="0.5"/>
<path d="M275.318 267.051C275.922 267.131 276.476 266.706 276.555 266.103C276.635 265.5 276.211 264.946 275.607 264.866C275.004 264.786 274.45 265.211 274.37 265.814C274.29 266.417 274.715 266.971 275.318 267.051Z" fill="#1AEEC2" stroke="#1AEEC2" stroke-width="0.5"/>
<path d="M279.689 267.629C280.292 267.708 280.846 267.284 280.926 266.681C281.006 266.077 280.581 265.523 279.978 265.444C279.374 265.364 278.821 265.788 278.741 266.392C278.661 266.995 279.086 267.549 279.689 267.629Z" fill="#1AEEC2" stroke="#1AEEC2" stroke-width="0.5"/>
<rect x="255.222" y="208.657" width="47.1995" height="4.04367" transform="rotate(7.71439 255.222 208.657)" fill="#1AEEC2" fill-opacity="0.3"/>
<rect x="246.995" y="268" width="47.1995" height="4.04367" transform="rotate(7.71439 246.995 268)" fill="#1AEEC2" fill-opacity="0.3"/>
</g>
<defs>
<linearGradient id="paint0_linear" x1="258.952" y1="316.5" x2="318.452" y2="19.9999" gradientUnits="userSpaceOnUse">
<stop stop-color="#1AEEC2" stop-opacity="0"/>
<stop offset="1" stop-color="#1AEEC2"/>
</linearGradient>
<linearGradient id="paint1_linear" x1="268.764" y1="264.627" x2="326.452" y2="-47.5" gradientUnits="userSpaceOnUse">
<stop stop-color="#1AEEC2" stop-opacity="0"/>
<stop offset="1" stop-color="#1AEEC2"/>
</linearGradient>
<clipPath id="clip0">
<rect width="66.1247" height="66.1247" fill="white" transform="translate(245.536 206.42) rotate(7.52953)"/>
</clipPath>
</defs>
</svg>
