<svg width="558" height="470" viewBox="0 0 558 470" fill="none" xmlns="http://www.w3.org/2000/svg">
<path fill-rule="evenodd" clip-rule="evenodd" d="M103.9 134.2L104.4 137.3L107.4 138.2L104.6 139.6L104.7 142.8L102.5 140.5L99.5 141.6L101 138.8L99 136.3L102.2 136.8L103.9 134.2Z" fill="#FEFEFE"/>
<path fill-rule="evenodd" clip-rule="evenodd" d="M127.9 231.4L128.4 235L131.9 235.9L128.7 237.6L128.9 241.2L126.4 238.6L123 240L124.6 236.7L122.3 233.9L125.9 234.4L127.9 231.4Z" fill="#FEFEFE"/>
<path fill-rule="evenodd" clip-rule="evenodd" d="M401.5 25.2L402.9 28.6L406.5 28.8L403.7 31.1L404.6 34.5999L401.5 32.5999L398.5 34.5999L399.4 31.1L396.6 28.8L400.2 28.6L401.5 25.2Z" fill="#FEFEFE"/>
<path fill-rule="evenodd" clip-rule="evenodd" d="M180.1 281.1L181.2 282.4L182.9 281.9L182 283.4L183 284.9L181.2 284.5L180.2 285.9L180.1 284.1L178.4 283.5L180 282.8L180.1 281.1Z" fill="#FEFEFE"/>
<path fill-rule="evenodd" clip-rule="evenodd" d="M53.3 267.1L53.6 267.9L54.6 268L53.9 268.6L54.1 269.5L53.3 269L52.5 269.5L52.7 268.6L52 268L53 267.9L53.3 267.1Z" fill="#FEFEFE"/>
<path fill-rule="evenodd" clip-rule="evenodd" d="M428 242.8L428.6 244.4L430.4 244.5L429 245.6L429.5 247.3L428 246.3L426.6 247.3L427 245.6L425.7 244.5L427.4 244.4L428 242.8Z" fill="#FEFEFE"/>
<path fill-rule="evenodd" clip-rule="evenodd" d="M467.1 83L467.7 84.6L469.4 84.7L468.1 85.8L468.5 87.4L467.1 86.5L465.6 87.4L466 85.8L464.7 84.7L466.4 84.6L467.1 83Z" fill="#FEFEFE"/>
<path fill-rule="evenodd" clip-rule="evenodd" d="M366.6 302.7L367.2 304.3L368.9 304.4L367.6 305.5L368.1 307.1L366.6 306.2L365.1 307.1L365.6 305.5L364.2 304.4L366 304.3L366.6 302.7Z" fill="#FEFEFE"/>
<path fill-rule="evenodd" clip-rule="evenodd" d="M71.9 0L72.5 1.6L74.2 1.7L72.9 2.8L73.4 4.5L71.9 3.5L70.5 4.5L70.9 2.8L69.5 1.7L71.3 1.6L71.9 0Z" fill="#FEFEFE"/>
<path fill-rule="evenodd" clip-rule="evenodd" d="M178.4 6.69995L179.6 10.1L183.3 10.3L180.4 12.6L181.4 16.1L178.4 14.1L175.3 16.1L176.2 12.6L173.4 10.3L177 10.1L178.4 6.69995Z" fill="#FEFEFE"/>
<path fill-rule="evenodd" clip-rule="evenodd" d="M434.4 134.2L437.4 136.1L440.4 134.2L439.5 137.6L442.3 139.9L438.7 140.1L437.4 143.4L436.1 140.1L432.6 139.9L435.4 137.7L434.4 134.2Z" fill="#FEFEFE"/>
<path fill-rule="evenodd" clip-rule="evenodd" d="M466 285.2L466.7 286.8L468.4 286.9L467 288L467.5 289.6L466 288.7L464.6 289.6L465 288L463.7 286.9L465.4 286.8L466 285.2Z" fill="#FEFEFE"/>
<path opacity="0.4" d="M266.452 115.303L0.548276 377.357L502.137 469.601L313.598 123.973L266.452 115.303Z" fill="url(#paint0_linear)"/>
<path opacity="0.8" d="M266.452 115.303L133.5 353L349 383L313.599 123.973L266.452 115.303Z" fill="url(#paint1_linear)"/>
<path opacity="0.4" d="M311.319 123.045L266.26 114.916C261.48 114.053 258.295 109.461 259.158 104.678C260.021 99.8941 264.61 96.705 269.39 97.5674L314.45 105.697C319.229 106.56 322.415 111.152 321.552 115.935C320.689 120.719 316.099 123.908 311.319 123.045Z" fill="#56CCF2"/>
<path d="M314.358 125.174C319.138 126.036 323.687 123.433 325.64 119.175L331.822 120.29C332.301 123.472 334.714 126.147 338.092 126.756C342.298 127.515 346.286 124.744 347.046 120.535L347.978 115.368C348.576 112.052 346.927 108.791 344.116 107.23L344.714 103.913L373.266 109.065C374.605 109.306 375.884 108.418 376.126 107.078C376.367 105.739 375.479 104.459 374.141 104.218L350.751 99.9974L350.774 99.8698C351.372 96.5533 349.723 93.2922 346.912 91.7313L347.476 88.6061C347.718 87.2667 346.83 85.987 345.491 85.7455C344.153 85.504 342.874 86.3928 342.632 87.7322L342.068 90.8574C338.889 91.3374 336.215 93.7527 335.606 97.1331L335.571 97.3244L312.181 93.1043C310.843 92.8628 309.564 93.7516 309.322 95.091C309.08 96.4303 309.968 97.7101 311.306 97.9516L339.859 103.103L339.26 106.42C336.081 106.9 333.408 109.315 332.798 112.695L332.303 115.438L326.503 114.392C326.225 109.731 322.809 105.69 318.029 104.828L266.341 95.5023C261.561 94.6399 256.948 97.232 255.059 101.501L249.259 100.455L249.754 97.7122C250.352 94.3956 248.703 91.1345 245.892 89.5736L246.49 86.257L275.042 91.4086C276.381 91.6501 277.66 90.7613 277.902 89.4219C278.143 88.0826 277.255 86.8028 275.917 86.5613L252.527 82.3412L252.562 82.1499C253.16 78.8333 251.511 75.5722 248.7 74.0113L249.263 70.8861C249.505 69.5467 248.617 68.267 247.279 68.0255C245.94 67.784 244.661 68.6728 244.42 70.0122L243.856 73.1374C240.676 73.6174 238.003 76.0328 237.393 79.4131L237.359 79.6044L213.969 75.3843C212.63 75.1428 211.351 76.0316 211.11 77.371C210.868 78.7103 211.756 79.9901 213.094 80.2316L241.646 85.3831L241.048 88.6997C237.868 89.1797 235.195 91.595 234.585 94.9754L233.653 100.142C232.894 104.351 235.662 108.341 239.868 109.1C243.182 109.698 246.441 108.047 248.002 105.233L254.184 106.348C254.462 111.008 257.89 114.986 262.659 115.912L314.358 125.174ZM271.338 117.412L305.754 123.621L271.338 117.412ZM242.237 80.287C242.513 78.7563 243.943 77.763 245.472 78.0389C247.002 78.3149 247.994 79.7452 247.718 81.2759L247.683 81.4673L242.202 80.4784L242.237 80.287ZM240.743 104.252C239.213 103.976 238.221 102.546 238.497 101.015L239.429 95.8493C239.705 94.3186 241.135 93.3253 242.664 93.6012C244.194 93.8772 245.186 95.3075 244.91 96.8382L243.978 102.004C243.713 103.471 242.272 104.528 240.743 104.252ZM315.232 120.327L263.545 111.001C260.613 110.472 258.629 107.611 259.158 104.677C259.687 101.744 262.546 99.7568 265.478 100.286L317.165 109.611C320.097 110.14 322.082 113.001 321.552 115.935C321.023 118.869 318.164 120.855 315.232 120.327ZM342.202 119.661C341.926 121.191 340.496 122.185 338.967 121.909C337.437 121.633 336.445 120.202 336.721 118.672L337.653 113.506C337.929 111.975 339.359 110.981 340.888 111.257C342.418 111.533 343.41 112.964 343.134 114.494L342.202 119.661ZM340.449 98.007C340.725 96.4763 342.155 95.483 343.685 95.7589C345.214 96.0349 346.206 97.4652 345.93 98.9959L345.896 99.1873L340.415 98.1983L340.449 98.007Z" fill="#1AEEC2"/>
<g clip-path="url(#clip0)">
<circle cx="264.356" cy="282.937" r="25" transform="rotate(-20.4055 264.356 282.937)" fill="#245E5B"/>
<path d="M255.06 257.95C241.193 263.109 234.108 278.589 239.267 292.456C244.425 306.323 259.905 313.408 273.772 308.25C287.64 303.091 294.725 287.611 289.566 273.744C284.407 259.877 268.928 252.792 255.06 257.95ZM272.959 306.063C260.297 310.773 246.164 304.305 241.453 291.642C236.743 278.98 243.213 264.847 255.874 260.137C268.536 255.427 282.669 261.895 287.379 274.558C292.09 287.22 285.621 301.352 272.959 306.063Z" fill="#1AEEC2"/>
<path d="M266.479 256.348C266.362 256.339 266.244 256.347 266.129 256.373L265.864 256.433C265.454 256.522 265.129 256.829 265.007 257.229C264.885 257.629 264.985 258.062 265.271 258.368C266.69 259.884 268.934 263.181 268.1 264.439L265.943 266.396C264.309 267.877 263.62 270.14 264.147 272.308L264.177 272.44C264.279 272.898 263.967 273.148 263.829 273.234C263.578 273.39 263.192 273.459 262.855 273.188L261.095 271.783C260.449 271.265 259.564 271.144 258.817 271.475C258.06 271.801 257.55 272.513 257.482 273.335C257.281 275.783 257.175 279.249 257.804 281.851C258 282.658 258.428 283.388 259.043 283.962L261.242 286.015C262.021 286.741 262.988 287.242 264.04 287.463C265.009 287.667 266.836 288.125 268.18 288.9C269.71 289.783 271.438 290.079 273.056 289.757C273.757 291.828 275.144 295.144 277.091 296.113C277.772 296.451 278.49 296.509 279.175 296.28C279.304 296.251 279.527 296.193 279.806 296.089C280.617 295.787 281.904 295.099 282.762 293.615C283.957 291.547 283.909 288.71 282.618 285.18L281.562 277.549L282.525 278.319C283.308 278.945 284.327 279.211 285.318 279.049C286.308 278.887 287.188 278.308 287.732 277.464L289.455 274.781C289.653 274.472 289.695 274.088 289.567 273.744C285.935 263.983 276.872 257.154 266.479 256.348ZM285.768 276.203C285.579 276.496 285.283 276.689 284.94 276.746C284.595 276.803 284.254 276.714 283.981 276.495L282.144 275.027C281.538 274.541 280.711 274.475 280.033 274.861C279.359 275.245 278.991 275.99 279.097 276.76L280.324 285.626C280.335 285.71 280.356 285.793 280.386 285.873C281.442 288.713 281.572 290.975 280.761 292.416C280.019 293.732 278.709 293.994 278.668 294.003C278.517 294.03 278.452 294.183 278.131 294.024C277.179 293.55 275.891 291.14 274.997 288.162C274.89 287.808 274.639 287.509 274.307 287.345C273.974 287.179 273.581 287.16 273.231 287.29C272.006 287.746 270.589 287.597 269.346 286.88C267.803 285.989 265.869 285.464 264.519 285.181C263.884 285.047 263.302 284.746 262.834 284.31L260.635 282.257C260.355 281.996 260.16 281.665 260.072 281.302C259.508 278.965 259.645 275.633 259.792 273.727L261.399 275.01C262.462 275.859 263.898 275.936 265.065 275.212C266.196 274.507 266.742 273.219 266.455 271.931L266.413 271.749C266.089 270.42 266.51 269.031 267.51 268.123L269.755 266.088C269.801 266.046 269.846 265.999 269.886 265.949C271.494 263.914 270.101 260.994 268.733 258.986C276.997 260.477 284.032 266.157 287.172 274.019L285.768 276.203Z" fill="#1AEEC2"/>
<path d="M264.903 300.185L263.994 299.77C262.891 299.264 261.717 298.979 260.505 298.92L256.595 298.729C255.019 298.651 253.646 297.646 253.095 296.167L252.483 294.521C252.108 293.514 251.264 292.755 250.222 292.489C249.181 292.224 248.076 292.487 247.264 293.19L242.745 297.112C242.292 297.506 242.21 298.18 242.559 298.67C248.431 306.921 258.679 311.21 268.668 309.597C268.746 309.584 268.82 309.564 268.89 309.538C269.37 309.359 269.688 308.881 269.647 308.354L269.526 306.803C269.301 303.923 267.53 301.387 264.903 300.185ZM267.2 306.984L267.234 307.439C258.806 308.415 250.317 304.86 245.094 298.164L248.793 294.953C249.031 294.745 249.341 294.672 249.645 294.75C249.949 294.828 250.187 295.041 250.296 295.335L250.908 296.981C251.785 299.336 253.972 300.937 256.481 301.059L260.391 301.25C261.307 301.295 262.192 301.511 263.024 301.892L263.932 302.307C265.788 303.156 267.041 304.948 267.2 306.984Z" fill="#1AEEC2"/>
<path d="M245.009 266.008C244.51 265.713 243.87 265.83 243.506 266.283C237.889 273.281 236.13 282.556 238.802 291.094C238.92 291.472 239.222 291.764 239.604 291.87C239.844 291.937 240.094 291.924 240.322 291.839C240.456 291.789 240.581 291.714 240.69 291.619L246.477 286.418C247.86 285.163 248.026 283.043 246.855 281.589C246.57 281.233 246.51 280.755 246.699 280.34L248.678 276.016C249.355 274.541 249.415 272.89 248.849 271.368L248.32 269.945C247.71 268.305 246.533 266.907 245.009 266.008ZM246.662 272.181C247.011 273.119 246.973 274.135 246.556 275.044L244.577 279.368C244.017 280.592 244.194 282.003 245.038 283.05C245.435 283.544 245.378 284.263 244.91 284.688L240.545 288.622C238.934 281.691 240.422 274.4 244.653 268.619C245.315 269.201 245.827 269.937 246.132 270.758L246.662 272.181Z" fill="#1AEEC2"/>
<path d="M251.806 249.203C250.676 249.623 249.557 250.105 248.481 250.636C247.903 250.921 247.666 251.622 247.951 252.199C248.218 252.741 248.85 252.983 249.403 252.777C249.44 252.763 249.478 252.746 249.513 252.728C250.518 252.234 251.563 251.783 252.62 251.39C253.224 251.165 253.531 250.493 253.307 249.889C253.082 249.286 252.41 248.978 251.806 249.203Z" fill="#1AEEC2"/>
<path d="M235.738 298.382C234.824 296.8 234.035 295.123 233.393 293.396C233.257 293.031 233.128 292.664 233.006 292.296C232.802 291.684 232.142 291.355 231.53 291.557C230.92 291.748 230.589 292.422 230.792 293.033C230.922 293.427 231.06 293.818 231.206 294.21C231.893 296.058 232.738 297.855 233.716 299.55C234.006 300.049 234.609 300.255 235.132 300.06C235.193 300.037 235.253 300.01 235.311 299.976C235.869 299.654 236.06 298.94 235.738 298.382Z" fill="#1AEEC2"/>
<path d="M244.58 308.272C242.789 306.949 241.129 305.439 239.648 303.783C239.218 303.304 238.48 303.262 238 303.692C237.52 304.121 237.478 304.858 237.909 305.339C239.496 307.114 241.274 308.731 243.193 310.149C243.523 310.392 243.937 310.436 244.294 310.303C244.499 310.227 244.686 310.091 244.826 309.903C245.208 309.385 245.098 308.654 244.58 308.272Z" fill="#1AEEC2"/>
<path d="M230.404 277.855C229.763 277.799 229.196 278.272 229.139 278.913C228.926 281.289 228.959 283.694 229.237 286.061C229.312 286.701 229.891 287.159 230.531 287.084C230.627 287.072 230.718 287.049 230.803 287.018C231.295 286.835 231.617 286.333 231.554 285.788C231.296 283.581 231.264 281.337 231.463 279.121C231.52 278.478 231.047 277.912 230.404 277.855Z" fill="#1AEEC2"/>
<path d="M234.833 264.836C234.266 264.529 233.559 264.738 233.251 265.305C232.115 267.401 231.189 269.62 230.499 271.9C230.313 272.515 230.661 273.168 231.278 273.354C231.532 273.431 231.791 273.417 232.021 273.331C232.352 273.208 232.622 272.937 232.732 272.575C233.376 270.446 234.24 268.374 235.302 266.418C235.609 265.852 235.399 265.144 234.833 264.836Z" fill="#1AEEC2"/>
<path d="M269.892 314.147C267.703 314.549 265.467 314.728 263.246 314.675C262.601 314.66 262.067 315.168 262.052 315.814C262.036 316.457 262.546 316.992 263.19 317.007C265.571 317.064 267.968 316.873 270.314 316.441C270.382 316.428 270.447 316.41 270.51 316.387C271.032 316.193 271.354 315.647 271.251 315.083C271.134 314.449 270.526 314.03 269.892 314.147Z" fill="#1AEEC2"/>
<path d="M283.81 309.477C283.451 308.941 282.726 308.8 282.192 309.156C280.35 310.388 278.367 311.438 276.296 312.276C275.699 312.517 275.411 313.198 275.652 313.795C275.89 314.382 276.55 314.67 277.14 314.451C277.15 314.447 277.161 314.443 277.172 314.438C279.39 313.539 281.515 312.415 283.489 311.096C284.024 310.737 284.168 310.013 283.81 309.477Z" fill="#1AEEC2"/>
<path d="M244.062 254.643C243.666 254.135 242.932 254.047 242.424 254.443C240.548 255.911 238.817 257.581 237.278 259.404C236.863 259.897 236.926 260.633 237.418 261.049C237.751 261.329 238.197 261.392 238.578 261.25C238.76 261.182 238.928 261.068 239.061 260.909C240.496 259.208 242.112 257.65 243.862 256.28C244.37 255.884 244.459 255.15 244.062 254.643Z" fill="#1AEEC2"/>
<path d="M256.629 313.832C254.465 313.328 252.343 312.599 250.321 311.666C249.736 311.397 249.042 311.652 248.773 312.237C248.504 312.823 248.759 313.516 249.344 313.786C251.511 314.785 253.784 315.566 256.101 316.106C256.333 316.159 256.565 316.14 256.771 316.063C257.126 315.931 257.409 315.63 257.501 315.233C257.647 314.606 257.257 313.978 256.629 313.832Z" fill="#1AEEC2"/>
<path d="M291.235 302.133C290.729 301.734 289.994 301.818 289.595 302.324C288.899 303.203 288.148 304.055 287.364 304.858C286.914 305.319 286.921 306.057 287.382 306.508C287.716 306.834 288.195 306.92 288.605 306.767C288.762 306.709 288.908 306.616 289.033 306.489C289.875 305.628 290.679 304.715 291.425 303.773C291.824 303.267 291.739 302.533 291.235 302.133Z" fill="#1AEEC2"/>
</g>
<defs>
<linearGradient id="paint0_linear" x1="259.5" y1="316.5" x2="319" y2="19.9999" gradientUnits="userSpaceOnUse">
<stop stop-color="#1AEEC2" stop-opacity="0"/>
<stop offset="1" stop-color="#1AEEC2"/>
</linearGradient>
<linearGradient id="paint1_linear" x1="269.312" y1="264.627" x2="327" y2="-47.5" gradientUnits="userSpaceOnUse">
<stop stop-color="#1AEEC2" stop-opacity="0"/>
<stop offset="1" stop-color="#1AEEC2"/>
</linearGradient>
<clipPath id="clip0">
<rect width="70" height="70" fill="white" transform="translate(219 261.4) rotate(-20.4055)"/>
</clipPath>
</defs>
</svg>
