<svg width="114" height="134" viewBox="0 0 114 134" fill="none" xmlns="http://www.w3.org/2000/svg">
<path fill-rule="evenodd" clip-rule="evenodd" d="M29.3916 58L0 113.087L26.6903 110.634L39.6084 134L69 78.9129L29.3916 58Z" fill="#E95454"/>
<path fill-rule="evenodd" clip-rule="evenodd" d="M32.5316 117.973C33.3616 116.213 32.4934 114.109 30.757 113.197L29.0544 112.302C27.352 111.344 26.704 109.216 27.6314 107.492C28.5717 105.74 30.7823 105.071 32.5569 105.999L37.368 108.521C38.8545 109.299 40.718 108.735 41.4845 107.258L41.603 107.032C42.4839 105.64 41.963 103.799 40.4976 103.034L26.1068 95.4933C24.3536 94.5731 23.4938 92.4778 24.3112 90.7128C25.2131 88.835 27.4916 88.0947 29.3254 89.0566L42.6745 96.0537C44.1609 96.8316 46.0245 96.267 46.8123 94.7991L46.8884 94.6066L46.9097 94.5649C47.7608 93.0257 47.1638 91.0934 45.5926 90.2696L38.1048 86.3464C36.3516 85.4264 35.4918 83.331 36.3218 81.5452C37.2155 79.6882 39.5025 78.9271 41.3363 79.889L49.6074 84.2261C51.1532 85.0375 52.9996 84.3598 53.8001 82.8208C53.8129 82.7999 53.8129 82.7999 53.8214 82.7789C53.834 82.7579 53.834 82.7579 53.8425 82.7372C54.6853 81.219 54.2195 79.3286 52.6694 78.5214L43.7459 73.8455C42.0138 72.9378 41.1541 70.8426 41.9714 69.0776C42.8735 67.1998 45.1521 66.4595 46.9858 67.4214L69 78.9604L39.4177 134L31.2652 119.366C31.7903 119.015 32.2477 118.58 32.5316 117.973Z" fill="#ED6362"/>
<path fill-rule="evenodd" clip-rule="evenodd" d="M84.6082 58L114 113.087L87.3097 110.634L74.3916 134L45 78.913L84.6082 58Z" fill="#ED6362"/>
<path fill-rule="evenodd" clip-rule="evenodd" d="M81.4658 117.969C80.6358 116.208 81.5038 114.105 83.24 113.193L84.9421 112.298C86.6444 111.34 87.2921 109.211 86.3648 107.488C85.4249 105.736 83.2145 105.067 81.4403 105.995L76.6303 108.517C75.1439 109.295 73.281 108.73 72.5144 107.254L72.3959 107.028C71.5152 105.635 72.036 103.795 73.5011 103.03L87.8934 95.4849C89.6465 94.5647 90.5061 92.4695 89.6889 90.7045C88.7869 88.8267 86.5088 88.0863 84.6754 89.0483L71.3288 96.0454C69.8426 96.8232 67.9795 96.2586 67.192 94.7907L67.1157 94.5982L67.0946 94.5563C66.2435 93.0173 66.8405 91.085 68.4115 90.2612L75.8976 86.3381C77.6507 85.4181 78.5103 83.3226 77.6803 81.5369C76.7869 79.6798 74.5004 78.9187 72.6668 79.8807L64.3887 84.2261C62.8433 85.0373 60.9972 84.3599 60.1969 82.8207C60.1842 82.7999 60.1842 82.7999 60.1756 82.7789C60.1629 82.758 60.1629 82.758 60.1545 82.7372C59.3118 81.219 59.7777 79.3284 61.3274 78.5214L70.2491 73.8455C71.9809 72.9379 72.8405 70.8426 72.0233 69.0777C71.1214 67.1996 68.8433 66.4595 67.0098 67.4215L45 78.9604L74.5765 134L82.7277 119.366C82.2067 119.011 81.7494 118.576 81.4658 117.969Z" fill="#E95454"/>
<path fill-rule="evenodd" clip-rule="evenodd" d="M56.9999 98C84.0619 98 106 76.062 106 48.9999C106 21.938 84.0619 0 56.9999 0C29.938 0 8 21.938 8 48.9999C8 76.062 29.938 98 56.9999 98Z" fill="#FFCC5B"/>
<path fill-rule="evenodd" clip-rule="evenodd" d="M63.737 43.4238H32.5547C30.1305 43.4238 28.1403 41.4559 28.1403 39.0586L28.1741 38.7584V38.6918C28.1405 36.1611 30.2274 34.0931 32.7907 34.0931H54.4027C57.2653 34.0931 59.7952 31.9959 59.9637 29.1609C60.0987 26.1967 57.708 23.6951 54.7062 23.6951H31.8126C29.2872 23.6951 27.3984 21.5981 27.4322 19.0966C27.4322 19.0632 27.4322 19.0632 27.4322 19.0299C27.4322 18.9965 27.4322 18.9965 27.4322 18.9632C27.3984 16.4658 29.283 14.3646 31.8126 14.3646H55.7687C58.5977 14.3646 61.1274 12.2675 61.296 9.4658C61.431 6.46816 59.0405 4 56.0385 4H38.4952C20.6063 11.2919 8 28.6856 8 49.0062C8 69.3268 20.6063 86.7164 38.4994 94H60.7732C63.6023 94 66.1319 91.903 66.3005 89.1012C66.4355 86.1036 64.045 83.6396 61.043 83.6396L35.7041 83.6354C32.7149 83.6354 30.3074 81.163 30.4678 78.1696C30.6152 75.368 33.1619 73.2625 35.9993 73.2625H45.8228C48.6476 73.1832 50.9285 70.8944 50.9285 68.0803C50.9285 65.216 48.5718 62.8813 45.671 62.8813H30.7798C28.3555 62.8813 26.3654 60.9177 26.3991 58.5162V58.1493C26.2306 55.7852 28.1531 53.7842 30.5436 53.7842H63.4335C66.2963 53.7842 68.826 51.687 68.9946 48.8854C69.1295 45.892 66.7349 43.4238 63.737 43.4238Z" fill="#FDBC4B"/>
<path fill-rule="evenodd" clip-rule="evenodd" d="M57 84C37.6998 84 22 68.295 22 48.998C22 29.7008 37.6998 14 57 14C76.3002 14 92 29.705 92 49.002C92 68.2992 76.3002 84 57 84Z" fill="#FFDB70"/>
<path fill-rule="evenodd" clip-rule="evenodd" d="M83.2642 48.3389H76.0554C76.0554 48.3389 76.0554 48.3389 75.8302 48.3389C75.8302 48.3389 75.8302 48.3389 75.6047 48.3389L68.8464 53.8475L58.709 48.1186V43.0509L68.8464 43.9324C68.8464 43.9324 68.8464 43.9324 69.0718 43.9324C69.0718 43.9324 69.0718 43.9324 69.2971 43.9324L74.2532 41.2881L82.1378 44.8136C82.5885 45.0339 83.2642 44.8136 83.4896 44.373C83.7149 43.9324 83.4896 43.2712 83.039 43.0509L76.0554 39.7459L80.1104 37.3222C80.5608 37.3222 80.7863 36.661 80.5608 36.2204C80.3356 35.7797 79.6599 35.5594 79.2092 35.7797L69.2971 41.5086L67.9455 34.4576L76.0554 32.6951C76.5059 32.6951 76.9565 32.0339 76.7313 31.5933C76.7313 31.1526 76.0554 30.712 75.6047 30.9323L68.8464 32.2542L71.5498 27.8476C71.775 27.4068 71.5498 26.7458 71.0993 26.5255C70.6487 26.3052 69.973 26.3052 69.7475 26.9662L66.1432 32.9154V33.1357C65.9178 33.356 65.9178 33.5763 65.9178 34.017L67.4948 42.1696L58.4838 41.2881V30.712L64.7915 25.6442C65.2421 25.2034 65.2421 24.7628 65.0169 24.3221C64.5662 23.8815 64.1158 23.8815 63.6651 24.1018L58.4838 28.2883V23.8815C58.4838 23.4408 58.0331 23 57.5827 23C57.132 23 56.6815 23.4408 56.6815 23.8815V34.6781L50.1484 32.4747L52.4013 24.9831C52.6266 24.5424 52.1759 23.8815 51.7255 23.8815C50.8243 23.6612 50.3737 24.1018 50.1484 24.5424L48.3462 31.1526L45.4176 26.7458C45.1924 26.3052 44.5165 26.3052 44.066 26.5255C43.6155 26.7458 43.6155 27.4068 43.8408 27.8476L47.8957 33.7967C47.8957 33.7967 47.8957 33.7967 48.121 33.7967L56.2309 36.4407V48.1186L51.2748 50.9832L46.9946 42.1696C46.9946 42.1696 46.9946 41.9493 46.7694 41.9493C46.7694 41.9493 46.5441 41.9493 46.5441 41.729L42.0385 39.0847L40.9122 30.712C40.9122 30.2713 40.4615 29.8305 39.7858 29.8305C39.3351 29.8305 38.8847 30.2713 38.8847 30.9323L40.011 37.9831L35.9561 35.7797C35.5054 35.3391 34.8295 35.5594 34.6043 36C34.3791 36.4407 34.6043 37.1018 35.055 37.3222L44.7419 42.8306L39.3351 47.4577L33.9286 41.5086C33.4779 41.0678 33.0275 41.0678 32.5768 41.5086C32.1264 41.9493 32.1264 42.3899 32.5768 42.8306L37.3077 47.8983H31.9009C31.4505 47.8983 31 48.3389 31 48.7798C31 49.2204 31.4505 49.6611 31.9009 49.6611H38.8847H39.1099C39.3351 49.6611 39.7858 49.6611 40.011 49.4407L46.3187 44.1527L50.1484 52.0848L40.9122 57.3728L33.9286 54.0678C33.4779 53.8475 32.802 54.0678 32.5768 54.5085C32.3516 54.9491 32.5768 55.6103 33.0275 55.8306L38.8847 58.4746L35.2802 60.4577C34.8295 60.678 34.6043 61.339 34.8295 61.7796C34.8295 62.4408 35.5054 62.6611 35.9561 62.4408L41.1374 59.3559L45.643 56.7119L46.5441 63.7627L38.6593 65.0848C38.2088 65.0848 37.7583 65.7458 37.7583 66.1864C37.7583 66.6271 38.434 67.0679 38.8847 67.0679L45.643 65.9661L42.9396 70.3729C42.7144 70.8135 42.7144 71.4747 43.3901 71.695C43.8408 71.9153 44.5165 71.9153 44.7419 71.2542L48.3462 65.0848C48.3462 65.0848 48.3462 65.0848 48.3462 64.8645C48.3462 64.8645 48.3462 64.8645 48.3462 64.6442L47.2198 56.0509L57.3574 50.322L61.6376 52.7457L56.0056 61.1187C56.0056 61.1187 56.0056 61.1187 56.0056 61.339V61.5593L56.2309 67.0679L49.4727 72.356C49.0221 72.7966 49.0221 73.2372 49.2473 73.6781C49.4727 74.1187 50.1484 74.1187 50.5991 73.8984L56.2309 69.4916L56.4563 74.1187C56.4563 74.5594 56.9068 75 57.3574 75C57.8079 75 58.2586 74.5594 58.2586 74.1187L58.0331 62.6611L64.7915 64.8645L62.5387 72.5763C62.3135 73.0169 62.764 73.6781 63.2146 73.6781C63.6651 73.8984 64.341 73.4576 64.341 73.0169L66.3685 66.4067L69.0718 70.8135C69.2971 71.2542 69.973 71.4747 70.4234 71.0338C70.8741 70.8135 71.0993 70.1526 70.6487 69.7119L67.0444 63.983C67.0444 63.983 67.0444 63.7627 66.8189 63.7627C66.8189 63.5424 66.5937 63.3221 66.1432 63.1017L58.2586 60.678L63.2146 53.1866L73.352 58.9153L74.0279 66.8476C74.0279 67.2882 74.4784 67.7289 75.1543 67.7289C75.6047 67.7289 76.0554 67.2882 76.0554 66.6271L75.6047 60.0171L79.2092 62C79.6599 62.2205 80.3356 62 80.5608 61.5593C80.7863 61.1187 80.5608 60.4577 80.1104 60.2374L74.9291 57.1525L70.4234 54.5085L75.8302 49.8814L81.0115 55.8306C81.462 56.2712 81.9126 56.2712 82.3631 55.8306C82.8137 55.39 82.8137 54.9491 82.3631 54.5085L77.8577 49.4407L83.039 49.2204C83.4896 49.2204 83.9401 48.7798 83.9401 48.3389C84.1653 48.5595 83.7149 48.3389 83.2642 48.3389Z" fill="#ED6362"/>
</svg>
